<svg 
          width="13.765094757080078" 
          height="25.030717849731445" fill="none" 
          xmlns="http://www.w3.org/2000/svg">
          <path d="M 13.383484350336529 22.881608214041922 C 13.502872104054774 22.996916750451227 13.598098248046336 23.13484870260465 13.663609501184153 23.287353681681125 C 13.72912075432197 23.4398586607576 13.763604802871896 23.60388387546734 13.765047073362606 23.769858003550766 C 13.766489343853316 23.935832131634193 13.734862479265308 24.100429914095045 13.672011372202741 24.254050328799664 C 13.609160265140174 24.407670743504283 13.516342670421613 24.547236449502165 13.398976790143221 24.664602314535735 C 13.28161090986483 24.781968179569304 13.14204518573856 24.874785762231657 12.988424751079965 24.937636861130404 C 12.83480431642137 25.00048796002915 12.670206512580673 25.0321148205091 12.50423236293863 25.03067255020573 C 12.338258213296587 25.029230279902357 12.174232977281374 24.994746235831613 12.021727978395809 24.929234991203145 C 11.869222979510244 24.863723746574678 11.731292201533574 24.768497614952175 11.615983650146678 24.649109876741374 L 0.36598326043499774 13.399108564122667 C 0.13164442488605552 13.1646989785034 0 12.846814101655635 0 12.515358924865723 C 0 12.18390374807581 0.13164442488605552 11.866018871228043 0.36598326043499774 11.631609285608777 L 11.615983650146678 0.381610170911135 C 11.731292201533574 0.2622224327003353 11.869222979510244 0.16699481096185453 12.021727978395809 0.10148356633338688 C 12.174232977281374 0.03597232170491922 12.338258213296587 0.0014894661935703124 12.50423236293863 0.000047195890199168826 C 12.670206512580673 -0.0013950744131719748 12.83480431642137 0.03023208762335905 12.988424751079965 0.09308318652210672 C 13.14204518573856 0.15593428542085438 13.28161090986483 0.24875067599042344 13.398976790143221 0.3661165410239944 C 13.516342670421613 0.4834824060575653 13.609160265140174 0.6230471807329585 13.672011372202741 0.7766675954375778 C 13.734862479265308 0.9302880101421971 13.766489343853316 1.094887655248022 13.765047073362606 1.260861783331447 C 13.763604802871896 1.426835911414872 13.72912075432197 1.590860828101419 13.663609501184153 1.7433658071778928 C 13.598098248046336 1.8958707862543667 13.502872104054774 2.0338015463150114 13.383484350336529 2.1491100827243153 L 3.0172325225803664 12.515358924865723 L 13.383484350336529 22.881608214041922 Z" fill="rgb(113.21006879210472,113.22732746601105,113.20628419518471)"/>
        </svg>